<?xml version="1.0" encoding="UTF-8"?>
<svg width="640" height="480" xmlns="http://www.w3.org/2000/svg" xmlns:svg="http://www.w3.org/2000/svg">
 <!-- Created with SVG-edit - http://svg-edit.googlecode.com/ -->
 <title>logo_ag</title>
 <g>
  <title>Layer 1</title>
  <path id="svg_17" stroke="#000000" d="m394.744969,205.77026c0.20781,-1.80886 0.32812,-3.63628 0.32812,-5.48225c0,-32.02153 -30.60228,-57.97641 -68.35748,-57.97641c-29.30074,0 -54.22661,15.66754 -63.94978,37.6522c-6.44201,-5.99244 -15.62926,-9.82352 -25.94303,-9.82352c-19.44634,0 -35.20684,13.36704 -35.20684,29.86017c0,1.94801 0.25156,3.84963 0.67811,5.68633c-25.94303,3.627 -45.79404,22.59688 -45.79404,45.62048c0,25.62093 24.48838,46.38113 54.68598,46.38113l173.62799,0c30.20853,0 54.68598,-20.7602 54.68598,-46.38113c0.01094,-22.73603 -19.30415,-41.56677 -44.75501,-45.537z" stroke-linecap="null" stroke-linejoin="null" stroke-dasharray="null" stroke-width="0" fill="#b2b2b2"/>
  <path stroke="#000000" id="svg_16" d="m382.477653,209.114012c0.207807,-1.808864 0.328116,-3.636281 0.328116,-5.48225c0,-32.021533 -30.602275,-57.976414 -68.357475,-57.976414c-29.300748,0 -54.226618,15.667546 -63.949785,37.652203c-6.442008,-5.992442 -15.629253,-9.823524 -25.943029,-9.823524c-19.446335,0 -35.206834,13.367042 -35.206834,29.860172c0,1.948008 0.251556,3.849634 0.678106,5.686327c-25.943029,3.627004 -45.79404,22.596887 -45.79404,45.620481c0,25.620937 24.488382,46.381131 54.68598,46.381131l173.627988,0c30.208536,0 54.68598,-20.760194 54.68598,-46.381131c0.010937,-22.736031 -19.304151,-41.56677 -44.755006,-45.536995z" stroke-linecap="null" stroke-linejoin="null" stroke-dasharray="null" stroke-width="0" fill="#0000ff"/>
  <text id="svg_20" font-weight="bold" stroke="#000000" transform="matrix(3.362495422363281,0,0,3.362495422363281,-1142.8361160755157,-38.09967041015625) " xml:space="preserve" text-anchor="middle" font-family="Sans-serif" font-size="24" y="94.001954" x="431.635633" stroke-linecap="null" stroke-linejoin="null" stroke-dasharray="null" stroke-width="0" fill="#999999">A.G</text>
  <text font-weight="bold" stroke="#000000" transform="matrix(3.362495422363281,0,0,3.362495422363281,-1142.8361160755157,-38.09967041015625) " xml:space="preserve" text-anchor="middle" font-family="Sans-serif" font-size="24" id="svg_15" y="93.892195" x="429.520474" stroke-linecap="null" stroke-linejoin="null" stroke-dasharray="null" stroke-width="0" fill="#ffffff">A.G</text>
  <path id="svg_21" stroke="#000000" d="m208.822099,277.601652l8.18905,-6.90515l-8.18905,-6.89834l-8.19139,-6.89834l0,7.67389c-2.14864,-0.0068 -5.7095,-0.0068 -6.71857,-0.0068c-2.98292,-0.10205 -4.94046,-1.46607 -6.97724,-3.90498c-3.03652,-3.63966 -5.62794,-10.19444 -8.75302,-16.50772c-1.58933,-3.13963 -3.36045,-6.25545 -5.71882,-8.75899c-2.33507,-2.51374 -5.38557,-4.25874 -8.77632,-4.22472l-14.69789,0l0,12.25918l14.69789,0c2.04377,0.05443 3.33715,1.02727 5.10127,3.44237c2.61005,3.58863 5.15486,10.44956 8.66446,16.94992c3.43968,6.43913 8.73204,12.9395 16.4084,13.00413l6.76984,0l0,7.67389l8.19139,-6.89834zm-34.64619,-46.43115c0.09322,0.09524 0.1911,0.18028 0.28198,0.27892c2.80115,2.97296 4.82395,6.62282 6.42494,9.79647c0.3682,0.74153 0.69446,1.45586 1.04402,2.18379l18.70386,0l0,7.6773l8.19139,-6.89834l8.18905,-6.90175l-8.18905,-6.90174l-8.19139,-6.90515l0,7.6705l-26.4548,0z" stroke-linecap="null" stroke-linejoin="null" stroke-dasharray="null" stroke-width="0" fill="#999999"/>
  <path stroke="#000000" id="svg_13" d="m205.426237,278.758649l8.189056,-6.905146l-8.189056,-6.898343l-8.191386,-6.898343l0,7.673896c-2.148637,-0.006803 -5.709501,-0.006803 -6.718568,-0.006803c-2.982923,-0.102046 -4.940466,-1.466068 -6.977244,-3.904979c-3.036523,-3.639658 -5.627937,-10.194444 -8.753015,-16.507721c-1.589339,-3.13963 -3.360449,-6.25545 -5.718823,-8.75899c-2.335069,-2.513745 -5.385574,-4.25874 -8.776319,-4.224725l-14.697888,0l0,12.259185l14.697888,0c2.043768,0.054425 3.337145,1.027268 5.101265,3.442368c2.610058,3.588635 5.154864,10.449561 8.664459,16.949922c3.439683,6.439134 8.732041,12.939495 16.408407,13.004125l6.769837,0l0,7.673896l8.191386,-6.898343zm-34.646186,-46.431153c0.093216,0.095243 0.191094,0.180282 0.281979,0.278927c2.801151,2.972954 4.823946,6.622817 6.424937,9.796463c0.368205,0.741538 0.694462,1.455863 1.044023,2.183795l18.70386,0l0,7.677298l8.191386,-6.898343l8.189056,-6.901744l-8.189056,-6.901744l-8.191386,-6.905146l0,7.670495l-26.454799,0z" stroke-linecap="null" stroke-linejoin="null" stroke-dasharray="null" stroke-width="0" fill="#ffffff"/>
 </g>
</svg>